<svg xmlns="http://www.w3.org/2000/svg" width="490" height="460" viewBox="0 0 490 460" role="img" aria-labelledby="title desc"><title id="title">Ouassim Tijani profile information</title><desc id="desc">A terminal-style card describing Ouassim as a graphic designer and digital marketer.</desc><style>
      .line { opacity: 0; transform: translateY(7px); animation: enter .42s cubic-bezier(.2,.8,.2,1) forwards; }
      @keyframes enter { to { opacity: 1; transform: translateY(0); } }
    </style><rect width="100%" height="100%" rx="12" fill="#0d1117"/><rect x=".5" y=".5" width="489" height="459" rx="11.5" fill="none" stroke="#30363d"/><circle cx="18" cy="18" r="4" fill="#ff5f56"/><circle cx="31" cy="18" r="4" fill="#ffbd2e"/><circle cx="44" cy="18" r="4" fill="#27c93f"/><text x="245" y="22" text-anchor="middle" fill="#7d8590" font-family="ui-monospace, SFMono-Regular, Consolas, monospace" font-size="10">ouassim@github:~</text><g font-family="ui-monospace, SFMono-Regular, Consolas, monospace"><g class="line" style="animation-delay:.15s"><text x="26" y="65" fill="#39d353" font-size="14">$ neofetch --creative</text></g><g class="line" style="animation-delay:.28s"><text x="26" y="94" fill="#58a6ff" font-size="18" font-weight="700">ouassim20</text><text x="116" y="94" fill="#8b949e" font-size="18">@github</text></g><g class="line" style="animation-delay:.4s"><rect x="26" y="106" width="438" height="1" fill="#30363d"/></g><g class="line" style="animation-delay:0.52s"><text x="26" y="140" fill="#58a6ff" font-size="13" font-weight="700">    name</text><text x="104" y="140" fill="#c9d1d9" font-size="13">Ouassim Tijani</text></g><g class="line" style="animation-delay:0.63s"><text x="26" y="175" fill="#f778ba" font-size="13" font-weight="700">    role</text><text x="104" y="175" fill="#c9d1d9" font-size="13">Graphic Designer + Digital Marketer</text></g><g class="line" style="animation-delay:0.74s"><text x="26" y="210" fill="#d2a8ff" font-size="13" font-weight="700">   focus</text><text x="104" y="210" fill="#c9d1d9" font-size="13">Brand identities / campaign creative</text></g><g class="line" style="animation-delay:0.85s"><text x="26" y="245" fill="#ffa657" font-size="13" font-weight="700">   craft</text><text x="104" y="245" fill="#c9d1d9" font-size="13">Digital experiences / presentation design</text></g><g class="line" style="animation-delay:0.96s"><text x="26" y="280" fill="#7ee787" font-size="13" font-weight="700">   stack</text><text x="104" y="280" fill="#c9d1d9" font-size="13">React / Vite / Tailwind / Three.js</text></g><g class="line" style="animation-delay:1.07s"><text x="26" y="315" fill="#79c0ff" font-size="13" font-weight="700">  motion</text><text x="104" y="315" fill="#c9d1d9" font-size="13">GSAP / Framer Motion / Lenis</text></g><g class="line" style="animation-delay:1.18s"><text x="26" y="350" fill="#e3b341" font-size="13" font-weight="700">building</text><text x="104" y="350" fill="#c9d1d9" font-size="13">Portfolio + event experiences</text></g><g class="line" style="animation-delay:1.29s"><text x="26" y="385" fill="#56d364" font-size="13" font-weight="700">  status</text><text x="104" y="385" fill="#c9d1d9" font-size="13">Open to ambitious creative work</text></g><g class="line" style="animation-delay:1.52s"><rect x="104" y="424" width="16" height="16" rx="3" fill="#161b22"/><rect x="126" y="424" width="16" height="16" rx="3" fill="#0e4429"/><rect x="148" y="424" width="16" height="16" rx="3" fill="#006d32"/><rect x="170" y="424" width="16" height="16" rx="3" fill="#26a641"/><rect x="192" y="424" width="16" height="16" rx="3" fill="#39d353"/><rect x="214" y="424" width="16" height="16" rx="3" fill="#58a6ff"/><rect x="236" y="424" width="16" height="16" rx="3" fill="#d2a8ff"/><rect x="258" y="424" width="16" height="16" rx="3" fill="#f778ba"/><text x="26" y="437" fill="#8b949e" font-size="12">palette</text></g></g></svg>